<?xml version="1.0" standalone="no"?>
<!DOCTYPE svg PUBLIC "-//W3C//DTD SVG 20010904//EN"
 "http://www.w3.org/TR/2001/REC-SVG-20010904/DTD/svg10.dtd">
<svg version="1.0" xmlns="http://www.w3.org/2000/svg"
 width="1200.000000pt" height="740.000000pt" viewBox="0 0 1200.000000 740.000000"
 preserveAspectRatio="xMidYMid meet">

<g transform="translate(0.000000,740.000000) scale(0.100000,-0.100000)"
fill="#000000" stroke="none">
<path d="M2931 5860 c-145 -578 -262 -1052 -260 -1054 2 -2 144 70 314 160
171 90 585 302 921 471 l610 307 146 583 145 583 -806 0 -806 0 -264 -1050z"/>
<path d="M9010 6903 c-671 -35 -1317 -175 -2305 -500 -603 -198 -1347 -476
-1875 -702 l-145 -62 -197 -792 c-108 -436 -195 -793 -195 -793 1 -1 130 57
287 128 458 208 866 388 877 388 6 0 -158 -673 -383 -1567 -216 -863 -394
-1571 -394 -1575 0 -5 333 -8 740 -8 407 0 740 2 740 5 0 4 919 3664 941 3747
9 35 12 37 132 81 483 177 1244 388 1578 437 376 56 698 27 918 -82 161 -80
287 -235 320 -396 43 -209 -48 -443 -271 -693 -97 -110 -320 -294 -435 -360
l-41 -23 61 -34 c231 -128 367 -332 408 -612 36 -252 -34 -455 -225 -646 -173
-173 -371 -262 -638 -289 -38 -4 -68 -3 -68 2 0 4 173 697 384 1538 211 842
383 1531 381 1533 -1 1 -351 -118 -778 -264 l-775 -268 -456 -1820 c-252
-1002 -459 -1829 -462 -1838 -5 -17 47 -18 993 -18 1021 0 1145 4 1408 41 462
65 819 230 1116 516 159 154 261 290 349 468 117 235 162 402 162 600 1 324
-131 629 -405 938 -33 37 -58 69 -56 70 2 2 49 33 104 70 346 229 566 553 631
931 22 125 14 404 -15 528 -125 537 -455 903 -1018 1127 -370 147 -896 221
-1393 194z"/>
<path d="M3795 5221 c-602 -301 -900 -456 -1105 -576 l-75 -44 -159 -638 c-87
-351 -174 -690 -193 -753 -105 -349 -260 -617 -490 -842 -108 -106 -217 -185
-347 -250 -161 -81 -298 -120 -495 -142 l-105 -11 -196 -785 c-109 -432 -196
-787 -194 -789 10 -12 424 44 623 85 622 125 1107 326 1551 644 551 394 951
953 1140 1593 47 159 718 2837 711 2837 -4 0 -303 -148 -666 -329z"/>
</g>
</svg>
